<svg width="32" height="32" viewBox="0 0 32 32" fill="none" xmlns="http://www.w3.org/2000/svg">
  <!-- Background circle with gradient -->
  <defs>
    <linearGradient id="faviconGradient" x1="0%" y1="0%" x2="100%" y2="100%">
      <stop offset="0%" style="stop-color:#6366f1;stop-opacity:1" />
      <stop offset="50%" style="stop-color:#8b5cf6;stop-opacity:1" />
      <stop offset="100%" style="stop-color:#ec4899;stop-opacity:1" />
    </linearGradient>
  </defs>
  
  <!-- Background circle -->
  <circle cx="16" cy="16" r="15" fill="url(#faviconGradient)"/>
  
  <!-- Document/Invoice icon -->
  <path d="M10 6h8l4 4v10a2 2 0 0 1-2 2H10a2 2 0 0 1-2-2V8a2 2 0 0 1 2-2z" 
        fill="white" opacity="0.9"/>
  
  <!-- Document fold -->
  <path d="M18 6v4h4l-4-4z" fill="white" opacity="0.7"/>
  
  <!-- Document lines -->
  <rect x="12" y="14" width="6" height="1" fill="white" opacity="0.6"/>
  <rect x="12" y="16" width="4" height="1" fill="white" opacity="0.6"/>
  <rect x="12" y="18" width="5" height="1" fill="white" opacity="0.6"/>
  
  <!-- Lightning bolt for automation -->
  <path d="M19 9l-1 4h2l-1.5 6 4-8h-2l1-2z" fill="#fbbf24" opacity="0.9"/>
</svg> 